<svg xmlns="http://www.w3.org/2000/svg" width="375" viewBox="0 0 375 375" height="375" version="1.0"><defs><clipPath id="a"><path d="M 42 42 L 333 42 L 333 332 L 42 332 Z M 42 42"/></clipPath><clipPath id="b"><path d="M 187.5 -81.023438 L 455.84375 187.324219 L 187.5 455.671875 L -80.847656 187.324219 Z M 187.5 -81.023438"/></clipPath><clipPath id="c"><path d="M 187.5 -81.023438 L 455.84375 187.324219 L 187.5 455.671875 L -80.847656 187.324219 Z M 187.5 -81.023438"/></clipPath></defs><g clip-path="url(#a)"><g clip-path="url(#b)"><g clip-path="url(#c)"><path fill="#22201B" d="M 321.671875 271.183594 L 237.8125 187.324219 L 321.671875 103.464844 C 335.566406 89.570312 335.566406 67.046875 321.671875 53.152344 C 307.777344 39.253906 285.253906 39.253906 271.355469 53.152344 L 187.5 137.007812 L 103.640625 53.152344 C 89.746094 39.253906 67.21875 39.253906 53.324219 53.152344 C 39.429688 67.046875 39.429688 89.570312 53.324219 103.464844 L 137.183594 187.324219 L 53.324219 271.183594 C 39.429688 285.078125 39.429688 307.601562 53.324219 321.496094 C 67.21875 335.394531 89.746094 335.394531 103.640625 321.496094 L 187.5 237.640625 L 271.355469 321.496094 C 285.253906 335.394531 307.777344 335.394531 321.671875 321.496094 C 335.566406 307.601562 335.566406 285.078125 321.671875 271.183594 Z M 321.671875 271.183594"/></g></g></g></svg>